# xmcd
#
# Track frame offsets:
#	150
#	14489
#	34363
#	48681
#	69224
#	90194
#	112105
#	128238
#	138356
#	157390
#	171993
#	188293
#
# Disc length: 2791 seconds
#
# Revision: 1
# Processed by: cddbd v1.5.2PL0 Copyright (c) Steve Scherf et al.
# Submitted via: EasyCDDAExtractor 7.0.5.4
#
DISCID=a40ae50c
DTITLE=Tom VandenAvond - A Broken Home Companion
DYEAR=2007
DGENRE=Country
TTITLE0=95 Pound Woman
TTITLE1=Wandering Boy
TTITLE2=The Travelin' Kind
TTITLE3=Stay away from All That Whisky
TTITLE4=Bones
TTITLE5=Rounds of Rum
TTITLE6=Ol' Mooner McGee
TTITLE7=Steak N Eggs with Gristle
TTITLE8=Alberta
TTITLE9=Oaxaca
TTITLE10=Wrong Way To Run
TTITLE11=First Snowfall
EXTD=
EXTT0=
EXTT1=
EXTT2=
EXTT3=
EXTT4=
EXTT5=
EXTT6=
EXTT7=
EXTT8=
EXTT9=
EXTT10=
EXTT11=
PLAYORDER=
